<svg xmlns="http://www.w3.org/2000/svg" viewBox="0 0 1260 540" font-family="'Segoe UI',Helvetica,Arial,sans-serif">
  <rect width="1260" height="540" fill="#0b4f88"/>
  <circle cx="1080" cy="120" r="300" fill="#1a6bb5" opacity="0.35"/>
  <!-- the scaffolding: many faint lines of "code", most of it since deleted -->
  <g fill="#ffffff">
    <rect x="150" y="96"  width="430" height="10" rx="5" opacity="0.14"/>
    <rect x="150" y="128" width="560" height="10" rx="5" opacity="0.12"/>
    <rect x="150" y="160" width="360" height="10" rx="5" opacity="0.15"/>
    <rect x="150" y="192" width="620" height="10" rx="5" opacity="0.11"/>
    <rect x="150" y="224" width="480" height="10" rx="5" opacity="0.13"/>
    <rect x="150" y="386" width="590" height="10" rx="5" opacity="0.12"/>
    <rect x="150" y="418" width="410" height="10" rx="5" opacity="0.14"/>
    <rect x="150" y="450" width="540" height="10" rx="5" opacity="0.11"/>
    <rect x="150" y="482" width="330" height="10" rx="5" opacity="0.13"/>
  </g>
  <!-- the four lines that stay -->
  <g fill="#ffffff">
    <rect x="186" y="256" width="500" height="12" rx="6" opacity="0.95"/>
    <rect x="186" y="284" width="640" height="12" rx="6" opacity="0.92"/>
    <rect x="186" y="312" width="560" height="12" rx="6" opacity="0.95"/>
    <rect x="186" y="340" width="420" height="12" rx="6" opacity="0.92"/>
  </g>
  <!-- bracket marking the kept block -->
  <path d="M166 250 h-12 v108 h12" fill="none" stroke="#c4683c" stroke-width="4"/>
</svg>
